<?xml version="1.0" standalone="no"?>
<!DOCTYPE svg PUBLIC "-//W3C//DTD SVG 20010904//EN"
 "http://www.w3.org/TR/2001/REC-SVG-20010904/DTD/svg10.dtd">
<svg version="1.0" xmlns="http://www.w3.org/2000/svg"
 width="256.000000pt" height="256.000000pt" viewBox="0 0 256.000000 256.000000"
 preserveAspectRatio="xMidYMid meet">

<g transform="translate(0.000000,256.000000) scale(0.100000,-0.100000)"
fill="#000000" stroke="none">
<path d="M875 1685 l-25 -24 0 -381 0 -381 25 -24 24 -25 381 0 381 0 24 25
25 24 0 381 0 381 -25 24 -24 25 -381 0 -381 0 -24 -25z m775 -405 l0 -370
-370 0 -370 0 0 370 0 370 370 0 370 0 0 -370z"/>
<path d="M1040 1498 c0 -15 32 -55 97 -120 l98 -98 -98 -98 c-65 -65 -97 -105
-97 -120 0 -47 41 -25 142 75 l98 98 98 -98 c65 -65 105 -97 120 -97 47 0 25
41 -75 142 l-98 98 98 98 c65 65 97 105 97 120 0 47 -41 25 -142 -75 l-98 -98
-98 98 c-101 100 -142 122 -142 75z"/>
</g>
</svg>
